<?xml version="1.0" encoding="UTF-8"?>
<svg width="371" height="265" xmlns="http://www.w3.org/2000/svg">
 <g>
  <title>Layer 1</title>
  <path fill="#000000" d="m6.799999,170.910004c6.41,-3.910004 13.940002,-5.220001 21.259998,-6.26001c8.470001,-0.649994 17.040001,-0.599991 25.43,0.87001c0.260002,-4 0.290001,-8.01001 -0.07,-12.01001c-3.860001,-2.610001 -9.419998,-4.369995 -10.43,-9.539993c-1.579994,-7.600006 1.410004,-15.050003 3.340004,-22.279999c1.709999,-7.180008 5.540001,-13.570007 8.169998,-20.419998c1.879997,-4.970001 6.040001,-9.51001 5.129997,-15.160004c-0.189995,-2.779999 -3,-4.18 -5.159996,-5.360001c-3.970001,-1.879997 -8.07,-3.849998 -12.489998,-4.330002c-2.860001,-0.379997 -5.100006,1.940002 -6.25,4.300003c-7.440002,15.600006 -11.540005,32.509995 -18.400002,48.339996c-3.610001,9.360001 -8,18.790009 -15.350002,25.830002l4.82,16.020004z" id="svg_5"/>
  <path fill="#000000" d="m155.740005,2.389999c4.87999,0.360001 9.459991,2.32 14.330002,2.73c6.959991,0.650002 13.979996,0.670002 20.959991,0.260002c4.020004,-0.200001 7.729996,-1.990002 11.669998,-2.580002c3.470001,1.630001 6.520004,4.02 9.779999,6.010002c-0.419998,5.119999 -2.610001,10.039997 -1.919998,15.249996c0.900009,7.779999 2.559998,15.57 5.970001,22.68c5.279999,10.550003 11.619995,20.590004 15.98999,31.580002c5.790009,13.969994 12.589996,27.579994 17.070007,42.060005c2.170013,6.779999 2.550018,14.799988 8.019989,19.979996c5.060028,4.429993 10.860016,7.889999 16.440002,11.610001c2.360016,1.639999 4.880005,3.389999 6.130005,6.089996c-0.329987,3.820007 -2.339996,7.190002 -4.119995,10.490005c-8.850006,-0.960007 -17.209991,-4.490005 -26.119995,-5.029999c-13.799988,-1.830002 -28.110016,-1.980011 -41.529999,2.149994c-4.860001,1.490005 -8.960007,4.570007 -13.320007,7.080002c-3.599991,-3.649994 -7.259995,-7.309998 -10.220001,-11.509995c6.740005,-6.639999 16.020004,-11.350006 19.800003,-20.5c2.790009,-7.820007 -1.589996,-15.600006 -4.349991,-22.76001c-5.340012,-14.779999 -13.540009,-28.259995 -19.860001,-42.600006c-1.25,-2.25 -2.210007,-5.079987 -4.680008,-6.25c-3.399994,0.480011 -6.619995,3.540009 -10.110001,2.100014c-3.580002,-2.340004 -6.25,-5.810005 -8.940002,-9.07c-2.199997,-2.530006 -3.289993,-6.260002 -1.830002,-9.410004c2.060013,-3.160011 5.190002,-5.459999 7.300003,-8.599998c2.680008,-3.910004 5.279999,-7.940002 7.059998,-12.340004c0.910004,-1.949997 -0.319992,-4.009995 -1.789993,-5.259995c-5.910004,-4.82 -13.279999,-7.270004 -19.550003,-11.510002c2.490005,-4.290001 5.240005,-8.420002 7.820007,-12.650002z" id="svg_6"/>
  <path fill="#000000" d="m34.120003,16.060001c2.299995,-3.350002 4.669998,-6.850002 7.969994,-9.290001c6.950005,-0.950001 13.910004,0.66 20.870003,0.59c11.260002,0.32 22.550003,-0.040001 33.790001,0.720001c0.929993,7.709999 4.990005,14.459999 9.710007,20.449997l23.809998,35.169998c1.339996,1.220001 2.759995,2.790001 4.690002,2.910004c3.12999,-1.099998 5.75,-3.459999 9.079987,-4.010002c3.920013,0.300003 6.350006,3.880005 8.87001,6.480003c2.509995,3.07 6.349991,6.409996 5.059998,10.849998c-1.559998,4.389999 -5.860001,7.459999 -6.470001,12.269997c-0.910004,7.699997 -0.360001,15.690002 2.559998,22.940002c4.889999,12.619995 9.949997,25.389999 11.860001,38.850006c-4.139999,2.259995 -8.729996,3.62999 -12.690002,6.220001c-9.039993,5.839996 -16.099991,14.259995 -21.309998,23.599991c-4.660004,-2.039993 -9.369995,-4.199997 -13.349991,-7.410004c-0.790009,-1.720001 -0.220001,-3.720001 -0.25,-5.549988c1.079987,-11.940002 -1.380005,-23.860001 -4.880005,-35.220001c-3.449997,-10.940002 -6.490005,-22.059998 -11.300003,-32.5c-6.149994,-14.480011 -12.839996,-29.070007 -23.050003,-41.190002c-2.059998,-1.810005 -4.609993,-5.920006 -7.649994,-3.520004c-3.800003,3.480003 -3.860001,9.650002 -7.959999,12.919998c-5.240005,1.480003 -9.910004,-2.059998 -14.390007,-4.189995c-3.119995,-1.660004 -7.619995,-3.810005 -6.659996,-8.130005c2.139999,-8.649994 6.800003,-16.489998 9,-25.129997c0.190002,-2.729996 1.409996,-7.099998 -1.959999,-8.290001c-4.590004,-2.269997 -9.919998,-2.360001 -14.5,-4.580002c-1.870003,-0.949997 -2.07,-3.409996 -0.849998,-4.959995z" id="svg_9"/>
 </g>
</svg>